<?xml version="1.0" encoding="iso-8859-1"?>
<!-- Generator: Adobe Illustrator 17.0.2, SVG Export Plug-In . SVG Version: 6.00 Build 0)  -->
<!DOCTYPE svg PUBLIC "-//W3C//DTD SVG 1.1//EN" "http://www.w3.org/Graphics/SVG/1.1/DTD/svg11.dtd">
<svg version="1.1" id="Capa_1" xmlns="http://www.w3.org/2000/svg" xmlns:xlink="http://www.w3.org/1999/xlink" x="0px" y="0px"
	 width="64px" height="64px" viewBox="0 0 64 64" style="enable-background:new 0 0 64 64;" xml:space="preserve">
<g>
	<path d="M48.673,20.411c-1.143,0-2.07,0.789-2.07,1.762c0,0.974,0.928,1.762,2.07,1.762c1.112,0,2.017-0.746,2.066-1.681
		c1.068-2.846,0.859-5.038,0.637-6.097c-0.157-0.739-0.879-1.317-1.643-1.317l-4.869-0.002c-0.388,0-0.752,0.151-1.025,0.425
		c-0.289,0.291-0.447,0.685-0.445,1.113c0.008,1.193-0.256,2.784-0.483,3.929c-0.19-0.049-0.393-0.076-0.603-0.076
		c-1.143,0-2.07,0.789-2.07,1.762c0,0.973,0.928,1.762,2.07,1.762c1.057,0,1.928-0.674,2.054-1.544l0.016,0.004
		c0.034-0.137,0.8-3.248,0.854-5.535l4.372,0.002c0.14,0.757,0.233,2.089-0.235,3.834C49.15,20.449,48.917,20.411,48.673,20.411z"/>
	<path d="M13.97,38.877c0.423,0.877,1.601,1.185,2.63,0.69c1.003-0.482,1.494-1.547,1.133-2.411
		c-0.272-3.028-1.411-4.912-2.071-5.77c-0.462-0.597-1.363-0.806-2.052-0.474l-4.388,2.111c-0.35,0.168-0.612,0.462-0.739,0.828
		c-0.135,0.387-0.105,0.812,0.082,1.196c0.524,1.071,0.977,2.62,1.268,3.75c-0.193,0.038-0.387,0.102-0.576,0.193
		c-1.029,0.496-1.522,1.609-1.1,2.486c0.423,0.877,1.6,1.185,2.63,0.689c0.952-0.458,1.444-1.444,1.181-2.282l0.016-0.003
		c-0.028-0.139-0.688-3.273-1.632-5.358l3.94-1.895c0.454,0.622,1.116,1.781,1.451,3.557c-0.225,0.035-0.451,0.102-0.671,0.208
		C14.041,36.887,13.548,38,13.97,38.877z"/>
	<circle cx="29.601" cy="18.016" r="4.395"/>
	<path d="M9.466,58.763H55.55c1.657,0,3-1.313,3-2.934s-1.343-2.934-3-2.934H41.475c0.083-0.031,0.167-0.059,0.246-0.106
		c0.689-0.417,0.911-1.313,0.494-2.003l-8.219-13.604v-6.719c3.741,3.377,5.55,8.785,5.582,8.884c0.2,0.617,0.773,1.01,1.389,1.01
		c0.147,0,0.299-0.023,0.447-0.071c0.768-0.247,1.188-1.07,0.94-1.836c-0.123-0.378-2.649-8.005-8.363-11.654
		c-0.023-1.993-1.643-3.602-3.642-3.602h-1.498c-0.96,0-1.827,0.378-2.478,0.985c-4.491-3.206-6.652-9.666-6.688-9.775
		c-0.249-0.765-1.069-1.187-1.836-0.939c-0.768,0.248-1.188,1.07-0.94,1.836c0.122,0.377,2.629,7.947,8.295,11.613v11.674
		l-2.826,4.959c-0.231,0.405-0.255,0.896-0.062,1.322l3.281,7.272c0.166,0.368,0.47,0.623,0.82,0.754H9.466
		c-1.657,0-3,1.314-3,2.934S7.809,58.763,9.466,58.763z M25.28,44.346l2.783-4.883h3.902l7.752,12.832
		c0.177,0.292,0.442,0.489,0.738,0.601H27.449c0.025-0.01,0.052-0.014,0.077-0.025c0.734-0.331,1.062-1.195,0.73-1.929L25.28,44.346
		z"/>
</g>
</svg>
