<?xml version="1.0" encoding="utf-8"?>
<!-- Generator: Adobe Illustrator 16.0.0, SVG Export Plug-In . SVG Version: 6.00 Build 0)  -->
<!DOCTYPE svg PUBLIC "-//W3C//DTD SVG 1.1//EN" "http://www.w3.org/Graphics/SVG/1.1/DTD/svg11.dtd">
<svg version="1.1"
	 id="Layer_1" xmlns:svg="http://www.w3.org/2000/svg" xmlns:rdf="http://www.w3.org/1999/02/22-rdf-syntax-ns#" xmlns:dc="http://purl.org/dc/elements/1.1/" xmlns:cc="http://creativecommons.org/ns#"
	 xmlns="http://www.w3.org/2000/svg" xmlns:xlink="http://www.w3.org/1999/xlink" x="0px" y="0px" width="512px" height="512px"
	 viewBox="0 0 512 512" enable-background="new 0 0 512 512" xml:space="preserve">
<g id="g3228" transform="scale(11.130435,11.130435)">
	<g id="g236">
		<path id="path243" d="M30.188,14C38.919,14,46,20.347,46,27.717c0,4.065-2.159,7.695-5.554,10.144
			C40.236,38.287,40,38.826,40,39.489c0,1.861,1.139,4.65,3,6.511c0,0-8,0-10.727-4c-1.273,0-1.377,0-2.086,0
			C21.456,42,14,35.087,14,27.717S21.456,14,30.188,14z M33.939,13C33.029,5.699,26.148,0,17.25,0C7.724,0,0,6.514,0,14.555
			c0,4.433,2.355,8.395,6.059,11.063c0.23,0.465,0.41,1.054,0.41,1.778c0,2.027-1.563,4.573-3.594,6.604
			c0,0,6.581-0.008,10.125-2.713v-3.57C13,19.739,20.871,13,30.188,13C30.46,13,33.939,13,33.939,13z"/>
		<path id="path245" opacity="0.25" enable-background="new    " d="M2.875,34c0,0,6.581-0.008,10.125-2.713v-1
			c-2.725,2.08-7.234,2.563-9.178,2.677C3.52,33.318,3.207,33.668,2.875,34z M6.059,25.618c0.167,0.338,0.306,0.743,0.37,1.216
			c0.015-0.146,0.04-0.296,0.04-0.438c0-0.725-0.18-1.313-0.41-1.778c-3.569-2.572-5.864-6.351-6.027-10.589
			C0.024,14.205,0,14.377,0,14.555C0,18.987,2.355,22.949,6.059,25.618z M30.188,13c0.272,0,3.752,0,3.752,0
			c-0.043-0.338-0.111-0.669-0.178-1h-3.574C20.871,12,13,18.739,13,26.717v1C13,19.739,20.871,13,30.188,13z M32.273,41h-2.086
			c-8.533,0-15.827-6.604-16.156-13.782C14.023,27.385,14,27.549,14,27.717C14,35.087,21.456,42,30.188,42h2.086C35,46,43,46,43,46
			c-0.318-0.318-0.607-0.671-0.882-1.035C39.971,44.835,34.449,44.191,32.273,41z M40.446,37.86C43.841,35.412,46,31.782,46,27.717
			c0-0.177-0.023-0.35-0.031-0.525c-0.162,3.871-2.262,7.317-5.522,9.669C40.236,37.287,40,37.826,40,38.489
			c0,0.171,0.02,0.358,0.039,0.544C40.113,38.574,40.287,38.185,40.446,37.86L40.446,37.86z"/>
	</g>
</g>
<text transform="matrix(0.9728 0 0 1 24.5015 150.1001)" fill="#FFFFFF" font-family="'Cabin-Bold'" font-size="91.0315">¡Hola!</text>
<text transform="matrix(1 0 0 1 207.376 330.0605)" fill="#FFFFFF" font-family="'Cabin-Bold'" font-size="100.7012">Hello!</text>
</svg>
