<?xml version="1.0" encoding="iso-8859-1"?>
<!-- Generator: Adobe Illustrator 16.0.4, SVG Export Plug-In . SVG Version: 6.00 Build 0)  -->
<!DOCTYPE svg PUBLIC "-//W3C//DTD SVG 1.1//EN" "http://www.w3.org/Graphics/SVG/1.1/DTD/svg11.dtd">
<svg version="1.1" id="Capa_1" xmlns="http://www.w3.org/2000/svg" xmlns:xlink="http://www.w3.org/1999/xlink" x="0px" y="0px"
	 width="13.571px" height="15px" viewBox="0 0 13.571 15" style="enable-background:new 0 0 13.571 15;" xml:space="preserve">
<path style="fill:#010002;" d="M8.065,0C5.024,0,2.559,2.465,2.559,5.506s2.466,5.506,5.507,5.506s5.506-2.465,5.506-5.506
	S11.106,0,8.065,0z M5.805,6.214c0-0.366,0.297-0.666,0.666-0.666c0.368,0,0.666,0.299,0.666,0.666c0,0.37-0.298,0.667-0.666,0.667
	C6.102,6.881,5.805,6.584,5.805,6.214z M7.996,10.139c-0.931,0-1.687-0.397-1.687-0.888h3.374
	C9.684,9.741,8.929,10.139,7.996,10.139z M9.662,6.881c-0.368,0-0.667-0.297-0.667-0.667c0-0.366,0.299-0.666,0.667-0.666
	c0.367,0,0.666,0.299,0.666,0.666C10.328,6.584,10.029,6.881,9.662,6.881z M12.164,13.694c0,0.721-1.258,1.306-2.81,1.306
	c-1.55,0-2.467-0.705-2.808-1.306c-0.342-0.602-0.005-0.002-0.005-0.002c-0.467-0.562-0.892-0.956-1.363-1.261
	c-0.262,0.504-1.061,0.724-1.895,0.488c-0.91-0.258-1.51-0.96-1.338-1.567c0.008-0.026,0.023-0.049,0.034-0.074
	c-0.536-0.135-1.143-0.287-1.842-0.471c-0.1-0.025-0.159-0.127-0.133-0.227c0.026-0.099,0.128-0.159,0.227-0.131
	c1.479,0.386,1.049,0.283,1.921,0.562c0.35-0.358,1.039-0.495,1.754-0.292c0.873,0.249,1.453,0.903,1.348,1.492
	c0.67,0.36,1.214,0.758,1.538,1.192c-0.005-0.004,0.002,0.003,0.002,0.003c0-0.002,0.001-0.002,0.001-0.002
	c0.116,0.074,1.115,0.707,2.573,0.707C10.921,14.112,12.153,13.688,12.164,13.694z M8.496,13.891
	c-0.01,0.014-0.021,0.023-0.03,0.035c-0.016-0.002-0.032-0.004-0.048-0.007c0.037-0.08,0.095-0.157-0.045-0.213
	c0.085,0.04,0.183,0.021,0.272,0.053c0.056,0.017,0.065,0.098,0.169,0.089C8.706,13.84,8.602,13.871,8.496,13.891z M9.308,13.703
	c-0.167-0.068-0.2-0.272-0.087-0.412c-0.033,0.002-0.064,0.007-0.098,0.01c0.002,0.067-0.022,0.157-0.04,0.234
	c-0.013,0.049,0.113,0.044,0.089,0.136c-0.032,0.122-0.166,0.199-0.287,0.195c0.037,0.024,0.087,0.072,0.134,0.123
	c0.019,0,0.036,0.001,0.056,0.002C9.053,13.917,9.212,13.745,9.308,13.703z M9.702,13.842c0.034-0.034,0.05-0.099,0.071-0.143
	l-0.001-0.001c-0.08-0.011-0.147-0.056-0.179-0.13c-0.018,0.031-0.035,0.061-0.053,0.093c0.132,0.002,0.22,0.119,0.112,0.22
	c0.067,0.043,0.083,0.066,0.116,0.11c0.002,0,0.004,0,0.006,0C9.751,13.94,9.727,13.892,9.702,13.842z M8.195,13.431
	c-0.317-0.12,0.2-0.34,0.28-0.372c0.088-0.037,0.235-0.007,0.235,0.092c0,0.121-0.205,0.213-0.315,0.247
	c0.173,0.033,0.135-0.046,0.222-0.088c0.064-0.031,0.167-0.058,0.222-0.1c0.033-0.024,0.013-0.077,0.054-0.128
	c0.12-0.149,0.694-0.128,0.604,0.119c0.06,0.017,0.119,0.016,0.163-0.001c-0.087-0.229,0.286-0.209,0.414-0.193
	c0.237,0.031,0.143,0.254-0.024,0.198c0,0.029,0.002,0.05,0.014,0.082c0.171-0.07,0.319-0.153,0.433-0.057
	c0.084,0.071,0.127,0.174,0.071,0.256c0.023,0,0.046,0,0.068,0.002c-0.127-0.253,0.302-0.214,0.357-0.028
	c0.288-0.205,0.257,0.295,0.263,0.277c-0.003-0.012,0.03,0.035,0.043,0.021c0.002,0.004,0.014,0.019,0.023,0.031
	c0.494-0.104,0.799-0.206,0.804-0.203c-0.36-0.342-1.241-0.869-2.792-0.869c-1.188,0-2.082,0.286-2.576,0.582
	c0.047,0.029,0.242,0.151,0.547,0.283c0.145-0.049,0.34-0.082,0.408-0.072c0.044-0.476,0.647,0.179,0.271,0.109
	c0.051,0.078,0.03,0.15-0.027,0.195c0.016,0.003,0.035,0.008,0.051,0.012c0.054-0.044,0.113-0.083,0.164-0.107
	C8.007,13.667,8.146,13.521,8.195,13.431z M10.919,13.561c-0.02,0.072-0.009,0.107,0.031,0.183c0.034-0.007,0.068-0.016,0.102-0.024
	c-0.027-0.014-0.055-0.028-0.082-0.042C10.979,13.661,10.917,13.61,10.919,13.561z M10.444,13.744
	c-0.18-0.081,0.073-0.272,0.075-0.254c-0.011-0.017-0.256,0.098-0.355,0.116c0.116-0.018,0.246,0.035,0.204,0.165
	c0.131-0.033,0.184,0.047,0.186,0.149c0.003,0,0.006,0,0.01-0.001C10.566,13.847,10.558,13.793,10.444,13.744z"/>
<g>
</g>
<g>
</g>
<g>
</g>
<g>
</g>
<g>
</g>
<g>
</g>
<g>
</g>
<g>
</g>
<g>
</g>
<g>
</g>
<g>
</g>
<g>
</g>
<g>
</g>
<g>
</g>
<g>
</g>
</svg>
