<?xml version="1.0" encoding="utf-8"?>
<!-- Generator: Adobe Illustrator 16.0.0, SVG Export Plug-In . SVG Version: 6.00 Build 0)  -->
<!DOCTYPE svg PUBLIC "-//W3C//DTD SVG 1.1//EN" "http://www.w3.org/Graphics/SVG/1.1/DTD/svg11.dtd">
<svg version="1.1" id="Layer_2" xmlns="http://www.w3.org/2000/svg" xmlns:xlink="http://www.w3.org/1999/xlink" x="0px" y="0px"
	 width="48px" height="48px" viewBox="0 0 48 48" enable-background="new 0 0 48 48" xml:space="preserve">
<g>
	<path d="M22.995,32.939c3.435,0,5.825-3.558,6.212-9.143c0.322-4.66,0.621-9.097-6.146-9.097c-6.096,0-6.543,4.058-6.279,9.097
		C17.094,29.644,19.566,32.939,22.995,32.939z"/>
</g>
<polygon points="38.002,41.949 37.947,36.613 29.191,31.105 27.43,34.683 23.08,36.924 18.62,34.626 16.858,31.049 8.102,36.557 
	8.048,41.893 13.445,41.893 13.334,41.949 "/>
<g>
	<path d="M35.57,21.427c2.973,0,5.045-3.087,5.383-7.927c0.279-4.036,0.535-7.884-5.328-7.884c-5.283,0-5.672,3.517-5.441,7.884
		C30.453,18.566,32.6,21.427,35.57,21.427z"/>
</g>
<path d="M46.812,24.605l-5.873-4.772l-1.527,3.101l-3.77,1.944l-3.865-1.996l-1.223-2.479c0.395,2.251,0.336,5.327-1.361,8.827
	h17.668L46.812,24.605z"/>
<g>
	<path d="M15.916,13.5c0.229-4.367-0.159-7.884-5.441-7.884c-5.866,0-5.608,3.848-5.328,7.884c0.336,4.84,2.409,7.927,5.385,7.927
		C13.502,21.427,15.646,18.566,15.916,13.5z"/>
</g>
<path d="M1.047,24.605l4.111-4.772l1.528,3.101l3.771,1.944l3.863-1.996l1.221-2.479c-0.393,2.251-0.334,5.327,1.362,8.827H1
	L1.047,24.605z"/>
</svg>
