<?xml version="1.0" ?><!DOCTYPE svg  PUBLIC '-//W3C//DTD SVG 1.1//EN'  'http://www.w3.org/Graphics/SVG/1.1/DTD/svg11.dtd'><svg enable-background="new 0 0 48 48" height="48px" id="Layer_2" version="1.1" viewBox="0 0 48 48" width="48px" xml:space="preserve" xmlns="http://www.w3.org/2000/svg" xmlns:xlink="http://www.w3.org/1999/xlink"><g><path d="M23.483,30.041c1.948,0,3.306-1.959,3.526-5.033C27.191,22.443,27.361,20,23.52,20c-3.459,0-3.713,2.234-3.563,5.008   C20.134,28.227,21.537,30.041,23.483,30.041z"/></g><polygon points="32,35 31.969,32.063 27,29.031 26,31 23.531,32.234 21,30.969 20,29 15.031,32.031 15,34.969 18.063,34.969 18,35   "/><g><path d="M30.619,23.703c1.688,0,2.864-1.699,3.056-4.363C33.833,17.118,33.979,15,30.65,15c-2.998,0-3.218,1.936-3.088,4.34   C27.716,22.129,28.933,23.703,30.619,23.703z"/></g><path d="M37,25.453l-3.333-2.627L32.8,24.533l-2.14,1.07l-2.193-1.098l-0.693-1.365c0.223,1.24,0.19,2.932-0.773,4.859h10.027  L37,25.453z"/><g><path d="M19.465,19.34c0.13-2.404-0.09-4.34-3.088-4.34c-3.329,0-3.183,2.118-3.024,4.34c0.191,2.664,1.367,4.363,3.056,4.363   C18.095,23.703,19.312,22.129,19.465,19.34z"/></g><path d="M11.027,25.453l2.333-2.627l0.867,1.707l2.14,1.07l2.193-1.098l0.693-1.365c-0.223,1.24-0.19,2.932,0.773,4.859H11  L11.027,25.453z"/></svg>